<svg width="51" height="55" viewBox="0 0 51 55" fill="none" xmlns="http://www.w3.org/2000/svg">
<path d="M23.9212 0.0190563C18.7929 0.395344 14.1807 2.20152 10.2566 5.35158C6.41846 8.43714 3.41891 13.1246 2.20404 17.9196C1.94602 18.9194 1.93527 19.0269 2.09653 19.2635L2.2578 19.5215H9.70828H17.1695L17.3845 19.2742C17.5028 19.1452 17.7501 18.8119 17.9328 18.5431C18.3844 17.8766 19.3842 16.8982 20.1368 16.3822C23.3084 14.232 27.2218 14.232 30.3933 16.3822C31.1459 16.8982 32.1458 17.8766 32.5973 18.5431C32.7801 18.8119 33.0273 19.1452 33.1456 19.2742L33.3606 19.5215H40.8219H48.2723L48.4336 19.2635C48.5949 19.0269 48.5841 18.9194 48.3261 17.9196C47.1112 13.1246 44.1117 8.43714 40.2736 5.35158C36.887 2.63157 32.6941 0.793133 28.5441 0.223326C27.4045 0.0620594 24.8243 -0.0454502 23.9212 0.0190563ZM26.8777 1.35219C31.1567 1.68547 35.2421 3.21212 38.7362 5.79238C39.7145 6.52345 41.3702 8.0931 42.4238 9.28647C44.2622 11.3829 46.0361 14.6082 46.8102 17.2853C46.907 17.6293 47.0145 17.9733 47.0467 18.0701C47.1112 18.2099 46.4124 18.2314 40.5531 18.2314H34.0057L33.3821 17.4143C31.2749 14.662 27.7163 13.1354 24.276 13.5009C23.0289 13.6299 22.244 13.8342 21.1797 14.2965C19.567 15.006 18.1694 16.0919 17.148 17.4143L16.5245 18.2314H9.97706C4.11773 18.2314 3.41891 18.2099 3.48342 18.0701C3.51567 17.9733 3.62318 17.6293 3.71994 17.2853C5.17134 12.2968 8.85895 7.5233 13.4712 4.65276C16.3632 2.86809 20.1261 1.62096 23.4159 1.36294C25.0931 1.23393 25.2866 1.23393 26.8777 1.35219Z" fill="#FFD00B"/>
<path d="M24.2435 18.1234C21.8138 18.6502 19.9969 20.5424 19.6528 22.9399C19.2765 25.5309 20.7924 28.0789 23.2759 29.0573C23.9425 29.3153 24.179 29.3475 25.2649 29.3475C26.3507 29.3475 26.5873 29.3153 27.2431 29.0573C30.3609 27.8316 31.823 24.2193 30.3824 21.295C29.4255 19.3813 27.6194 18.1664 25.5337 18.0697C25.0606 18.0482 24.4801 18.0697 24.2435 18.1234ZM26.5765 19.5748C26.8668 19.6608 27.3613 19.9081 27.6946 20.1231C29.9093 21.596 30.2749 24.7461 28.4472 26.7028C27.4474 27.7671 25.9315 28.2832 24.5446 28.0252C22.1793 27.5951 20.5989 25.4234 20.9645 23.1012C21.3945 20.4026 23.9103 18.8222 26.5765 19.5748Z" fill="#FFD00B"/>
<path d="M0.215021 23.2841C0.0967596 23.4024 0 23.5959 0 23.7142C0 23.9937 0.365536 24.3593 0.645064 24.3593C0.91384 24.3593 1.29013 23.9937 1.29013 23.7249C1.29013 23.4992 0.817081 23.0691 0.580557 23.0691C0.494549 23.0691 0.333283 23.1659 0.215021 23.2841Z" fill="#FFD00B"/>
<path d="M3.99958 23.2411C3.54803 23.5529 3.80606 24.3593 4.36512 24.3593C4.64464 24.3593 4.90267 24.1442 4.99943 23.854C5.04243 23.6712 4.98868 23.5422 4.79516 23.3379C4.48338 23.0261 4.33286 23.0046 3.99958 23.2411Z" fill="#FFD00B"/>
<path d="M8.06335 23.2841C7.94509 23.4024 7.84833 23.5959 7.84833 23.7142C7.84833 23.8325 7.94509 24.026 8.06335 24.1442C8.26762 24.3485 8.41813 24.3593 12.0735 24.3593C15.6213 24.3593 15.8901 24.3485 16.0514 24.1657C16.3094 23.8862 16.2772 23.4347 15.9976 23.2411C15.7934 23.0906 15.2236 23.0691 12.0197 23.0691C8.41813 23.0691 8.26762 23.0799 8.06335 23.2841Z" fill="#FFD00B"/>
<path d="M34.5323 23.2411C34.242 23.4454 34.2205 23.9292 34.4893 24.1765C34.672 24.3378 35.1021 24.3593 38.4671 24.3593C42.1118 24.3593 42.2623 24.3485 42.4665 24.1442C42.5848 24.026 42.6816 23.8325 42.6816 23.7142C42.6816 23.5959 42.5848 23.4024 42.4665 23.2841C42.2623 23.0799 42.1118 23.0691 38.5102 23.0691C35.3063 23.0691 34.7365 23.0906 34.5323 23.2411Z" fill="#FFD00B"/>
<path d="M45.7349 23.3379C45.5414 23.5422 45.4877 23.6712 45.5307 23.854C45.6812 24.3485 46.2618 24.5205 46.5843 24.1658C46.8423 23.8862 46.8101 23.4347 46.5305 23.2412C46.1972 23.0046 46.0467 23.0261 45.7349 23.3379Z" fill="#FFD00B"/>
<path d="M49.6161 23.1981C49.3473 23.3487 49.2398 23.4992 49.2398 23.7357C49.2398 23.9937 49.6161 24.3593 49.8849 24.3593C50.0032 24.3593 50.1967 24.2625 50.3149 24.1442C50.4332 24.026 50.53 23.8325 50.53 23.7142C50.53 23.4777 50.1752 23.0691 49.9709 23.0691C49.8957 23.0691 49.7344 23.1336 49.6161 23.1981Z" fill="#FFD00B"/>
<path d="M2.27912 27.9823C1.94584 28.1114 1.92433 28.4231 2.20386 29.509C3.66601 35.3038 7.32137 40.3783 12.3636 43.6251C13.5247 44.3777 15.3309 45.3346 16.2125 45.6571C16.7823 45.8721 17.0833 46.1086 18.1799 47.1515L19.4701 48.3879L19.083 50.6456C18.8573 51.925 18.7067 53.0753 18.739 53.3118C18.8035 53.7956 19.2335 54.3977 19.6958 54.6342C20.4484 55.0213 20.8462 54.9138 23.1469 53.7204L25.2649 52.6238L27.3613 53.7096C29.1138 54.6235 29.5331 54.7955 29.9631 54.8062C30.5867 54.817 31.0705 54.5912 31.436 54.1074C31.8768 53.5269 31.8768 53.1183 31.4468 50.6456L31.049 48.3879L32.3391 47.1515C33.4357 46.0979 33.7367 45.8829 34.3173 45.6571C35.1881 45.3346 36.9943 44.3777 38.1662 43.6251C43.2084 40.3783 46.8638 35.3038 48.3259 29.509C48.6054 28.4016 48.5839 28.1221 48.2077 27.9716C47.9819 27.8856 33.6185 27.8856 33.3819 27.9716C33.2852 28.0146 33.0164 28.3371 32.7691 28.6919C31.8875 29.9928 30.4469 31.2184 28.9955 31.8957C27.8236 32.444 26.77 32.6591 25.2649 32.6591C23.7597 32.6591 22.7061 32.444 21.5343 31.8957C20.0829 31.2184 18.6422 29.9928 17.7607 28.6919C17.5134 28.3371 17.2446 28.0146 17.1478 27.9716C16.9328 27.8963 2.48339 27.8963 2.27912 27.9823ZM17.0188 29.8853C18.653 32.1108 21.3085 33.6159 24.2005 33.9492C27.6731 34.3577 31.436 32.7128 33.511 29.8853L34.0163 29.1972H40.5529C44.1438 29.1972 47.0896 29.2187 47.0896 29.251C47.0896 29.2725 46.896 29.896 46.6595 30.6164C46.208 31.971 45.2511 34.0889 44.5415 35.2608C42.6924 38.3249 39.9938 41.0126 36.8545 42.9156C35.9299 43.4746 34.8978 44.0337 34.7796 44.0337C34.7473 44.0337 34.7258 43.9154 34.7258 43.7649C34.7258 43.2059 34.2098 42.55 33.6077 42.3135C33.4357 42.249 32.2961 42.0555 31.0812 41.8727C29.8771 41.7007 28.8665 41.5502 28.8557 41.5287C28.8342 41.5179 28.415 40.6471 27.9097 39.5935C27.4044 38.5399 26.8883 37.54 26.77 37.3573C26.082 36.4004 24.4478 36.4004 23.7597 37.3573C23.6415 37.54 23.1254 38.5399 22.6201 39.5935C22.1148 40.6471 21.6955 41.5179 21.674 41.5287C21.6633 41.5502 20.6527 41.7007 19.4486 41.8727C18.2337 42.0555 17.1478 42.2275 17.0403 42.2705C16.3845 42.4963 15.804 43.2059 15.804 43.7649C15.804 43.9154 15.7825 44.0337 15.7502 44.0337C15.6319 44.0337 14.5998 43.4746 13.6752 42.9156C10.5359 41.0126 7.83742 38.3249 5.98824 35.2608C5.27867 34.0889 4.32182 31.971 3.87028 30.6164C3.63375 29.896 3.44023 29.2725 3.44023 29.251C3.44023 29.2187 6.38603 29.1972 9.97688 29.1972H16.5135L17.0188 29.8853ZM25.6089 38.0883C25.7057 38.1959 26.2647 39.2602 26.8668 40.4643C27.6409 42.0125 28.0279 42.6683 28.1999 42.7436C28.3289 42.7973 29.361 42.9693 30.4792 43.1198C31.608 43.2704 32.7046 43.4424 32.9196 43.5069C33.3282 43.6144 33.5002 43.8724 33.3927 44.2272C33.3604 44.324 32.5326 45.1733 31.5543 46.1086C29.9954 47.603 29.7803 47.8503 29.7803 48.1513C29.7803 48.3449 29.9524 49.549 30.1781 50.8499L30.5759 53.2043L30.3286 53.3979C30.0276 53.6451 30.0169 53.6451 27.4904 52.312C26.469 51.7744 25.5337 51.3122 25.4047 51.2799C25.2434 51.2369 24.4801 51.5702 22.8459 52.4088C20.8892 53.4194 20.4914 53.5914 20.3087 53.4946C20.1904 53.4301 20.0614 53.3011 20.0291 53.2151C19.9969 53.1398 20.1474 52.054 20.3624 50.8284C20.5774 49.6027 20.7494 48.4201 20.7494 48.2051C20.7494 47.8503 20.6204 47.689 18.9218 46.0549C16.3523 43.5606 16.32 43.6359 20.0506 43.1198C21.1795 42.9693 22.2008 42.7973 22.3299 42.7436C22.5019 42.6683 22.8889 42.0125 23.663 40.4643C24.8026 38.1636 24.9746 37.9056 25.2649 37.9056C25.3617 37.9056 25.5229 37.9916 25.6089 38.0883Z" fill="#FFD00B"/>
<path d="M9.5577 43.1952C9.27817 43.3887 9.04165 43.7435 8.57935 44.6789C8.24607 45.3562 7.93429 45.969 7.86978 46.0335C7.81603 46.0872 7.28923 46.2055 6.70867 46.2808C5.09601 46.485 4.77348 46.5925 4.39719 47.0226C4.08541 47.3666 4.06391 47.4526 4.10691 47.9794C4.16067 48.56 4.17142 48.5815 5.25727 49.6674L6.35388 50.764L6.13886 52.0648C6.00985 52.7744 5.91309 53.4947 5.91309 53.6667C5.91309 54.3333 6.62266 54.9999 7.33223 54.9999C7.46124 54.9999 8.19231 54.6881 8.94489 54.3011L10.3103 53.6022L11.6972 54.3118C13.2346 55.1181 13.5463 55.1504 14.1807 54.6128C14.7182 54.1613 14.7612 53.8495 14.4709 52.1831L14.2237 50.7102L15.331 49.6458C16.5566 48.4632 16.7179 48.1407 16.4276 47.3881C16.2019 46.7753 15.7718 46.5603 14.3849 46.356C13.7184 46.2593 13.0733 46.1518 12.955 46.1303C12.8045 46.098 12.5357 45.6787 12.0627 44.7434C11.5466 43.7113 11.3101 43.3457 11.0306 43.1845C10.5575 42.8942 10.0092 42.8942 9.5577 43.1952ZM11.0736 45.6572C11.4606 46.4313 11.8692 47.1301 11.9874 47.2054C12.1057 47.2806 12.8045 47.4311 13.5463 47.5279C14.2882 47.6354 14.9762 47.7537 15.0837 47.7859C15.245 47.8504 15.073 48.0654 14.0946 49.0438C13.2131 49.9146 12.9013 50.2909 12.9013 50.4844C12.9013 50.6349 13.0195 51.3875 13.1593 52.1723C13.2991 52.9572 13.3851 53.6237 13.3528 53.6452C13.3313 53.6775 12.654 53.3657 11.8584 52.9464C10.8586 52.4089 10.3533 52.2046 10.1813 52.2476C10.0522 52.2799 9.34268 52.6239 8.61161 53.0109C7.88053 53.398 7.25697 53.6882 7.22472 53.6667C7.20322 53.6345 7.29998 52.9034 7.46124 52.0326C7.65476 50.936 7.70852 50.3984 7.63326 50.2694C7.56875 50.1619 7.0312 49.5813 6.42914 48.99C5.64431 48.2267 5.36479 47.8827 5.46154 47.8182C5.5368 47.7644 6.24637 47.6462 7.04195 47.5386C7.83753 47.4311 8.55785 47.2806 8.65461 47.2161C8.74062 47.1516 9.12766 46.4528 9.5147 45.668C9.89098 44.8939 10.2458 44.2488 10.2888 44.2488C10.3425 44.2488 10.6973 44.8831 11.0736 45.6572Z" fill="#FFD00B"/>
<path d="M39.4889 43.1844C39.2308 43.3456 38.9621 43.7542 38.4675 44.7433C38.0912 45.4744 37.7149 46.0979 37.6289 46.1194C37.5429 46.1517 36.8979 46.2484 36.199 46.3559C34.7477 46.5602 34.3391 46.7645 34.1026 47.388C33.8123 48.1406 33.9736 48.4739 35.1992 49.6458L36.3066 50.6994L36.0593 52.183C35.769 53.8494 35.812 54.1612 36.3496 54.6128C36.9839 55.1503 37.2957 55.1181 38.8331 54.3117L40.2199 53.6022L41.6176 54.3117C42.8862 54.9568 43.0582 55.0105 43.456 54.946C43.9721 54.86 44.4559 54.43 44.5741 53.9677C44.6171 53.7849 44.5526 53.0646 44.4129 52.2045L44.1763 50.7639L45.2729 49.6673C46.3588 48.5814 46.3695 48.5599 46.4233 47.9794C46.4663 47.4526 46.4448 47.3665 46.1223 47.0118C45.7245 46.5495 45.7352 46.5602 43.9721 46.3022C43.241 46.1947 42.6174 46.0549 42.5959 45.9904C42.5744 45.9151 42.2841 45.3238 41.9509 44.6573C41.4993 43.7542 41.2413 43.3779 40.9725 43.2059C40.521 42.8941 39.9404 42.8941 39.4889 43.1844ZM41.0263 45.6679C41.4026 46.4527 41.7896 47.1515 41.8864 47.216C41.9724 47.2805 42.6927 47.431 43.4883 47.5386C44.2838 47.6461 44.9934 47.7643 45.0687 47.8181C45.1654 47.8826 44.8859 48.2266 44.1011 48.99C43.499 49.5813 42.9615 50.1618 42.897 50.2693C42.8217 50.3983 42.8755 50.9359 43.069 52.0325C43.2302 52.9033 43.327 53.6344 43.3055 53.6559C43.284 53.6774 42.6604 53.3871 41.9294 53.0001C41.1875 52.6238 40.478 52.2798 40.349 52.2475C40.1769 52.2045 39.6824 52.4088 38.6718 52.9463C37.8762 53.3656 37.1989 53.6774 37.1774 53.6452C37.1451 53.6237 37.2311 52.9571 37.3709 52.1723C37.5107 51.3874 37.6289 50.6349 37.6289 50.4844C37.6289 50.2908 37.3172 49.9145 36.4356 49.0437C35.4572 48.0654 35.2852 47.8503 35.4465 47.7858C35.554 47.7536 36.242 47.6353 36.9839 47.5278C37.7257 47.431 38.4245 47.2805 38.5428 47.2053C38.661 47.13 39.0696 46.4312 39.4566 45.6571C39.8329 44.883 40.1877 44.2487 40.2307 44.2487C40.2844 44.2487 40.6392 44.8938 41.0263 45.6679Z" fill="#FFD00B"/>
</svg>
